<mxfile host="app.diagrams.net" modified="2023-12-14T11:35:50.671Z" agent="Mozilla/5.0 (Windows NT 10.0; Win64; x64) AppleWebKit/537.36 (KHTML, like Gecko) Chrome/120.0.0.0 Safari/537.36 Edg/120.0.0.0" etag="7FKCBrQcNPk5thWVhNP9" version="22.1.8" type="google">
  <diagram name="Страница — 1" id="gEL7IwaJnmNnduN6FxiQ">
    <mxGraphModel grid="1" page="1" gridSize="10" guides="1" tooltips="1" connect="1" arrows="1" fold="1" pageScale="1" pageWidth="827" pageHeight="1169" math="0" shadow="0">
      <root>
        <mxCell id="0" />
        <mxCell id="1" parent="0" />
        <mxCell id="Fo55SJ2HdXTVPqy4A3gZ-10" style="edgeStyle=none;rounded=0;orthogonalLoop=1;jettySize=auto;html=1;entryX=0.17;entryY=0.9;entryDx=0;entryDy=0;entryPerimeter=0;" edge="1" parent="1" source="Fo55SJ2HdXTVPqy4A3gZ-1" target="Fo55SJ2HdXTVPqy4A3gZ-5">
          <mxGeometry relative="1" as="geometry" />
        </mxCell>
        <mxCell id="Fo55SJ2HdXTVPqy4A3gZ-11" style="edgeStyle=none;rounded=0;orthogonalLoop=1;jettySize=auto;html=1;entryX=0.072;entryY=0.735;entryDx=0;entryDy=0;entryPerimeter=0;" edge="1" parent="1" source="Fo55SJ2HdXTVPqy4A3gZ-1" target="Fo55SJ2HdXTVPqy4A3gZ-6">
          <mxGeometry relative="1" as="geometry" />
        </mxCell>
        <mxCell id="Fo55SJ2HdXTVPqy4A3gZ-1" value="Сотрудник" style="shape=umlActor;verticalLabelPosition=bottom;verticalAlign=top;html=1;outlineConnect=0;" vertex="1" parent="1">
          <mxGeometry x="130" y="180" width="30" height="60" as="geometry" />
        </mxCell>
        <mxCell id="Fo55SJ2HdXTVPqy4A3gZ-15" style="edgeStyle=none;rounded=0;orthogonalLoop=1;jettySize=auto;html=1;entryX=0;entryY=0.5;entryDx=0;entryDy=0;" edge="1" parent="1" source="Fo55SJ2HdXTVPqy4A3gZ-2" target="Fo55SJ2HdXTVPqy4A3gZ-14">
          <mxGeometry relative="1" as="geometry" />
        </mxCell>
        <mxCell id="Fo55SJ2HdXTVPqy4A3gZ-2" value="Кладовщик" style="shape=umlActor;verticalLabelPosition=bottom;verticalAlign=top;html=1;outlineConnect=0;" vertex="1" parent="1">
          <mxGeometry x="130" y="420" width="30" height="60" as="geometry" />
        </mxCell>
        <mxCell id="Fo55SJ2HdXTVPqy4A3gZ-3" value="Клиент" style="shape=umlActor;verticalLabelPosition=bottom;verticalAlign=top;html=1;outlineConnect=0;" vertex="1" parent="1">
          <mxGeometry x="580" y="420" width="30" height="60" as="geometry" />
        </mxCell>
        <mxCell id="Fo55SJ2HdXTVPqy4A3gZ-5" value="Группировать заказы по типам компьютеров" style="ellipse;whiteSpace=wrap;html=1;" vertex="1" parent="1">
          <mxGeometry x="190" y="110" width="110" height="80" as="geometry" />
        </mxCell>
        <mxCell id="Fo55SJ2HdXTVPqy4A3gZ-6" value="Принять заказ" style="ellipse;whiteSpace=wrap;html=1;" vertex="1" parent="1">
          <mxGeometry x="280" y="160" width="110" height="80" as="geometry" />
        </mxCell>
        <mxCell id="Fo55SJ2HdXTVPqy4A3gZ-7" value="Собирать и тестировать компьютеры" style="ellipse;whiteSpace=wrap;html=1;" vertex="1" parent="1">
          <mxGeometry x="300" y="240" width="110" height="80" as="geometry" />
        </mxCell>
        <mxCell id="Fo55SJ2HdXTVPqy4A3gZ-18" style="edgeStyle=none;rounded=0;orthogonalLoop=1;jettySize=auto;html=1;entryX=0.5;entryY=0;entryDx=0;entryDy=0;" edge="1" parent="1" source="Fo55SJ2HdXTVPqy4A3gZ-8" target="Fo55SJ2HdXTVPqy4A3gZ-14">
          <mxGeometry relative="1" as="geometry" />
        </mxCell>
        <mxCell id="Fo55SJ2HdXTVPqy4A3gZ-8" value="Упаковывать компьютеры согласно заказам" style="ellipse;whiteSpace=wrap;html=1;" vertex="1" parent="1">
          <mxGeometry x="280" y="320" width="110" height="80" as="geometry" />
        </mxCell>
        <mxCell id="Fo55SJ2HdXTVPqy4A3gZ-12" style="edgeStyle=none;rounded=0;orthogonalLoop=1;jettySize=auto;html=1;" edge="1" parent="1" source="Fo55SJ2HdXTVPqy4A3gZ-1" target="Fo55SJ2HdXTVPqy4A3gZ-7">
          <mxGeometry relative="1" as="geometry" />
        </mxCell>
        <mxCell id="Fo55SJ2HdXTVPqy4A3gZ-13" style="edgeStyle=none;rounded=0;orthogonalLoop=1;jettySize=auto;html=1;" edge="1" parent="1" source="Fo55SJ2HdXTVPqy4A3gZ-1" target="Fo55SJ2HdXTVPqy4A3gZ-8">
          <mxGeometry relative="1" as="geometry" />
        </mxCell>
        <mxCell id="Fo55SJ2HdXTVPqy4A3gZ-16" style="edgeStyle=none;rounded=0;orthogonalLoop=1;jettySize=auto;html=1;" edge="1" parent="1" source="Fo55SJ2HdXTVPqy4A3gZ-14" target="Fo55SJ2HdXTVPqy4A3gZ-3">
          <mxGeometry relative="1" as="geometry" />
        </mxCell>
        <mxCell id="Fo55SJ2HdXTVPqy4A3gZ-14" value="Отгрузка заказа" style="ellipse;whiteSpace=wrap;html=1;" vertex="1" parent="1">
          <mxGeometry x="280" y="420" width="120" height="80" as="geometry" />
        </mxCell>
        <mxCell id="Fo55SJ2HdXTVPqy4A3gZ-17" style="edgeStyle=none;rounded=0;orthogonalLoop=1;jettySize=auto;html=1;entryX=1.005;entryY=0.627;entryDx=0;entryDy=0;entryPerimeter=0;" edge="1" parent="1" source="Fo55SJ2HdXTVPqy4A3gZ-3" target="Fo55SJ2HdXTVPqy4A3gZ-6">
          <mxGeometry relative="1" as="geometry" />
        </mxCell>
      </root>
    </mxGraphModel>
  </diagram>
</mxfile>
